<?xml version="1.0" standalone="no"?>
<!DOCTYPE svg PUBLIC "-//W3C//DTD SVG 20010904//EN"
 "http://www.w3.org/TR/2001/REC-SVG-20010904/DTD/svg10.dtd">
<svg version="1.0" xmlns="http://www.w3.org/2000/svg"
 width="500.000000pt" height="500.000000pt" viewBox="0 0 500.000000 500.000000"
 preserveAspectRatio="xMidYMid meet">
<metadata>
Created by potrace 1.14, written by Peter Selinger 2001-2017
</metadata>
<g transform="translate(0.000000,500.000000) scale(0.100000,-0.100000)"
fill="#000000" stroke="none">
<path d="M1423 4629 c-293 -26 -556 -210 -689 -484 -68 -140 -87 -248 -81
-445 7 -213 35 -318 142 -535 87 -178 175 -307 566 -830 781 -1047 947 -1321
1105 -1825 23 -74 45 -128 48 -120 3 8 27 83 55 165 156 473 402 879 992 1635
475 609 645 886 734 1200 57 199 73 431 40 580 -67 300 -319 557 -630 641
-119 33 -337 33 -455 0 -242 -67 -452 -229 -582 -451 -49 -83 -118 -239 -138
-312 -7 -27 -16 -48 -20 -48 -4 0 -17 28 -30 63 -34 94 -122 268 -179 349
-160 232 -411 390 -654 413 -34 3 -78 7 -97 9 -19 2 -77 -1 -127 -5z"/>
</g>
</svg>
